<svg height="512" viewBox="0 0 512 512" width="512" xmlns="http://www.w3.org/2000/svg" xmlns:xlink="http://www.w3.org/1999/xlink"><linearGradient id="a" gradientUnits="userSpaceOnUse" x1="44.875" x2="567.815" y1="521.258" y2="-1.683" data-name="New Gradient Swatch 1"><stop offset="0" stop-color="#003f8a"/><stop offset=".518" stop-color="#00d7df"/><stop offset="1" stop-color="#006df0"/></linearGradient><linearGradient id="b" x1="-38.192" x2="484.749" xlink:href="#a" y1="438.192" y2="-84.749"/><linearGradient id="c" x1="-58.192" x2="464.749" xlink:href="#a" y1="418.192" y2="-104.749"/><linearGradient id="d" x1="-18.192" x2="504.749" xlink:href="#a" y1="458.192" y2="-64.749"/><linearGradient id="e" x1="69.808" x2="592.749" xlink:href="#a" y1="546.192" y2="23.251"/><g><path d="m496 416h-40v-260a28.031 28.031 0 0 0 -28-28h-44v-104a8 8 0 0 0 -8-8h-240a8 8 0 0 0 -8 8v104h-44a28.031 28.031 0 0 0 -28 28v260h-40a8 8 0 0 0 -8 8v44a28.031 28.031 0 0 0 28 28h440a28.031 28.031 0 0 0 28-28v-44a8 8 0 0 0 -8-8zm-352-384h224v224h-80a8.011 8.011 0 0 0 -7.16 4.42l-24.84 49.69-24.84-49.69a8.011 8.011 0 0 0 -7.16-4.42h-80zm-8 240h83.06l29.78 59.58a8.009 8.009 0 0 0 14.32 0l29.78-59.58h83.06a8 8 0 0 0 8-8v-96h32v224h-320v-224h32v96a8 8 0 0 0 8 8zm-64-116a12.01 12.01 0 0 1 12-12h44v8h-40a8 8 0 0 0 -8 8v240a8 8 0 0 0 8 8h336a8 8 0 0 0 8-8v-240a8 8 0 0 0 -8-8h-40v-8h44a12.01 12.01 0 0 1 12 12v260h-368zm221.44 276-4.5 16h-66.69l-4-16zm194.56 36a12.01 12.01 0 0 1 -12 12h-440a12.01 12.01 0 0 1 -12-12v-36h177.75l6.49 25.94a8 8 0 0 0 7.76 6.06h79a8 8 0 0 0 7.7-5.83l7.36-26.17h177.94z" fill="url(#a)"/><path d="m237.47 199.589a7.992 7.992 0 0 0 10.12-5.059l32-96a8 8 0 0 0 -15.18-5.06l-32 96a8 8 0 0 0 5.06 10.119z" fill="url(#b)"/><path d="m222.656 187.562-29.041-43.562 29.041-43.562a8 8 0 1 0 -13.312-8.876l-32 48a8 8 0 0 0 0 8.876l32 48a8 8 0 0 0 13.312-8.876z" fill="url(#c)"/><path d="m291.562 198.656a8 8 0 0 0 11.094-2.218l32-48a8 8 0 0 0 0-8.876l-32-48a8 8 0 1 0 -13.312 8.876l29.041 43.562-29.041 43.562a8 8 0 0 0 2.218 11.094z" fill="url(#d)"/><path d="m200 368h112a8 8 0 0 0 0-16h-112a8 8 0 0 0 0 16z" fill="url(#e)"/></g></svg>