<svg id="Capa_1" enable-background="new 0 0 512 512" height="512" viewBox="0 0 512 512" width="512" xmlns="http://www.w3.org/2000/svg"><g><path d="m480.59 366.947c-1.069-12.041-4.321-23.804-9.683-35.098l19.438-32.417-37.778-37.778-32.417 19.438c-11.309-5.361-23.057-8.613-35.127-9.683l-9.023-16.255-9.141-16.469-51.592 13.828.63 37.852c-9.902 6.973-18.56 15.63-25.532 25.532l-37.852-.63-13.828 51.592 32.725 18.193c1.069 12.041 4.321 23.804 9.683 35.098l-19.438 32.417 37.778 37.778 32.417-19.438c11.309 5.361 23.057 8.613 35.127 9.683l9.023 15.106 9.141 16.304 51.592-14.828-.63-35.537c9.902-6.973 18.56-15.63 25.532-25.532l36.537.63 13.828-51.592zm-104.59 39.053c-16.569 0-30-13.433-30-30 0-16.569 13.431-30 30-30s30 13.431 30 30c0 16.567-13.431 30-30 30z" fill="#64e1dc"/><path d="m436.732 497.172-.63-35.537c9.902-6.973 18.56-15.63 25.532-25.532l36.537.63 13.829-51.592-31.41-18.193c-1.069-12.041-4.321-23.804-9.683-35.098l19.438-32.417-37.778-37.778-32.417 19.438c-11.309-5.361-23.057-8.613-35.127-9.683l-9.023-16.256v90.846c16.569 0 30 13.431 30 30 0 16.567-13.431 30-30 30v89.696l9.141 16.304z" fill="#00c8c8"/><path d="m331 192.704v-53.408l-34.805-8.716c-3.018-11.133-7.383-21.709-13.066-31.626l18.428-30.747-37.764-37.764-30.747 18.428c-9.917-5.684-20.493-10.049-31.626-13.066l-8.716-35.805h-26.704-26.704l-8.716 35.805c-11.133 3.018-21.709 7.383-31.626 13.066l-30.747-18.428-37.764 37.764 18.428 30.747c-5.684 9.917-10.049 20.493-13.066 31.626l-35.805 8.716v53.408l35.805 8.716c3.018 11.133 7.383 21.709 13.066 31.626l-18.428 30.747 37.764 37.764 30.747-18.428c9.917 5.684 20.493 10.049 31.626 13.066l8.716 34.805h26.704 26.704l8.716-34.805c11.133-3.018 21.709-7.383 31.626-13.066l30.747 18.428 37.764-37.764-18.428-30.747c5.684-9.917 10.049-20.493 13.066-31.626zm-165 33.296c-33.137 0-60-26.863-60-60 0-33.138 26.863-60 60-60s60 26.862 60 60c0 33.137-26.863 60-60 60z" fill="#edf5ff"/><path d="m201.42 296.195c11.133-3.018 21.709-7.383 31.626-13.066l30.747 18.428 37.764-37.764-18.428-30.747c5.684-9.917 10.049-20.493 13.066-31.626l34.805-8.716v-53.408l-34.805-8.716c-3.018-11.133-7.383-21.709-13.066-31.626l18.428-30.747-37.764-37.764-30.747 18.428c-9.917-5.684-20.493-10.049-31.626-13.066l-8.716-35.805h-26.704v106c33.137 0 60 26.862 60 60 0 33.137-26.863 60-60 60v105h26.704z" fill="#d5e8fe"/><path d="m166 91c-41.353 0-75 33.647-75 75s33.647 75 75 75 75-33.647 75-75-33.647-75-75-75zm0 120c-24.814 0-45-20.186-45-45s20.186-45 45-45 45 20.186 45 45-20.186 45-45 45z" fill="#d5e8fe"/><path d="m241 166c0-41.353-33.647-75-75-75v30c24.814 0 45 20.186 45 45s-20.186 45-45 45v30c41.353 0 75-33.647 75-75z" fill="#b5dbff"/><path d="m376 331c-24.814 0-45 20.186-45 45s20.186 45 45 45 45-20.186 45-45-20.186-45-45-45zm0 60c-8.276 0-15-6.724-15-15s6.724-15 15-15 15 6.724 15 15-6.724 15-15 15z" fill="#00c8c8"/><path d="m421 376c0-24.814-20.186-45-45-45v30c8.276 0 15 6.724 15 15s-6.724 15-15 15v30c24.814 0 45-20.186 45-45z" fill="#00a0aa"/></g></svg>