<svg id="Capa_1" enable-background="new 0 0 512 512" height="512" viewBox="0 0 512 512" width="512" xmlns="http://www.w3.org/2000/svg"><g><g><path d="m76 0h360v512h-360z" fill="#5f55af"/><path d="m256 0h180v512h-180z" fill="#453d83"/><g><path d="m211 422h90v30h-90z" fill="#453d83"/></g><path d="m256 422h45v30h-45z" fill="#2d2755"/></g><path d="m241 60h30v30h-30z" fill="#453d83"/><path d="m310.756 312.382-19.512-22.764 39.214-33.618-39.214-33.618 19.512-22.764 65.786 56.382z" fill="#00c8c8"/><path d="m201.244 312.382-65.786-56.382 65.786-56.382 19.512 22.764-39.214 33.618 39.214 33.618z" fill="#64e1dc"/><path d="m256.454 192.367-.454 1.817-29.546 118.183 29.092 7.266.454-1.817 29.546-118.183z" fill="#64e1dc"/><path d="m256.454 192.367-.454 1.817v123.632l29.546-118.183z" fill="#00c8c8"/><path d="m256 60h15v30h-15z" fill="#2d2755"/></g></svg>