<svg id="Capa_1" enable-background="new 0 0 512 512" height="512" viewBox="0 0 512 512" width="512" xmlns="http://www.w3.org/2000/svg"><g><path d="m241 391h30v90h-30z" fill="#d5e8fe"/><path d="m256 391h15v90h-15z" fill="#b5dbff"/><path d="m0 16v390h512v-390z" fill="#5f55af"/><path d="m256 16h256v390h-256z" fill="#453d83"/><g><g><path d="m361 211c0-5.4-.601-10.8-1.5-16.5l31.5-30.6-26.7-46.2-42.3 11.999c-9-7.2-19.2-12.9-30-16.8l-9.3-36.899h-53.4l-9.3 36.899c-10.8 3.9-21 9.6-30 16.8l-42.3-11.999-26.7 46.2 31.5 30.601c-.899 5.7-1.5 11.1-1.5 16.5s.601 10.8 1.5 16.5l-31.5 30.599 26.7 46.199 41.999-12.001c9.001 7.202 19.2 12.902 30.3 16.8l9.301 36.902h53.4l9.3-36.901c11.1-3.898 21.299-9.598 30.3-16.8l42 12.001 26.7-46.2-31.5-30.6c.899-5.7 1.5-11.1 1.5-16.5zm-105 30c-16.5 0-30-13.5-30-30s13.5-30 30-30 30 13.5 30 30-13.5 30-30 30z" fill="#64e1dc"/></g><path d="m359.5 227.5 31.5 30.6-26.7 46.2-41.999-12.001c-9.001 7.202-19.2 12.902-30.3 16.8l-9.301 36.901h-26.7v-105c16.5 0 30-13.5 30-30s-13.5-30-30-30v-105h26.7l9.3 36.899c10.8 3.9 21 9.6 30 16.8l42.3-11.999 26.7 46.2-31.5 30.6c.899 5.7 1.5 11.1 1.5 16.5s-.601 10.8-1.5 16.5z" fill="#00c8c8"/><g><path d="m256 166c-24.901 0-45 20.099-45 45 0 24.899 20.099 45 45 45s45-20.101 45-45c0-24.901-20.099-45-45-45zm0 60c-8.401 0-15-6.601-15-15 0-8.401 6.599-15 15-15s15 6.599 15 15c0 8.399-6.599 15-15 15z" fill="#00c8c8"/></g><path d="m301 211c0 24.899-20.099 45-45 45v-30c8.401 0 15-6.601 15-15 0-8.401-6.599-15-15-15v-30c24.901 0 45 20.099 45 45z" fill="#00a0aa"/></g><path d="m121 466h270v30h-270z" fill="#edf5ff"/><path d="m256 466h135v30h-135z" fill="#d5e8fe"/></g></svg>