<svg id="Capa_1" enable-background="new 0 0 512 512" height="512" viewBox="0 0 512 512" width="512" xmlns="http://www.w3.org/2000/svg"><g><circle cx="256" cy="256" fill="#5f55af" r="256"/><path d="m512 256c0-140.61-115.39-256-256-256v512c140.61 0 256-115.39 256-256z" fill="#453d83"/><path d="m330.209 181.791c19.014 19.014 30.791 45.264 30.791 74.209l45 30 45-30c0-53.76-21.87-102.51-57.18-137.82l-61.802 31.802z" fill="#fdbf00"/><path d="m256 61-30 45 30 45c28.945 0 55.195 11.777 74.209 30.791l63.611-63.611c-35.31-35.31-84.06-57.18-137.82-57.18z" fill="#ffda2d"/><path d="m118.18 118.18 11.569 41.569 52.042 22.042c19.014-19.014 45.264-30.791 74.209-30.791v-90c-53.76 0-102.51 21.87-137.82 57.18z" fill="#00a0aa"/><path d="m118.18 118.18c-35.31 35.31-57.18 84.06-57.18 137.82l45 30 45-30c0-28.945 11.777-55.195 30.791-74.209z" fill="#00c8c8"/><path d="m118.173 393.827 10.605 10.605 63.618-63.618-10.605-10.605c-20.208-20.222-30.791-46.725-30.791-74.209h-90c0 53.505 21.374 102.026 57.173 137.827z" fill="#64e1dc"/><path d="m330.209 330.209-10.605 10.605 63.618 63.618 10.605-10.605c37.905-37.906 57.173-87.292 57.173-137.827h-90c0 28.53-11.327 54.73-30.791 74.209z" fill="#ff3980"/><path d="m269.345 204.145-13.345-25.987-13.345 25.986c-7.426 14.473-31.655 63.121-31.655 81.856 0 24.814 20.186 45 45 45s45-20.186 45-45c0-18.735-24.229-67.383-31.655-81.855z" fill="#ffda2d"/><path d="m301 286c0-18.735-24.229-67.383-31.655-81.855l-13.345-25.987v152.842c24.814 0 45-20.186 45-45z" fill="#fdbf00"/><path d="m256 391h-75v30h75 75v-30z" fill="#edf5ff"/><path d="m256 391h75v30h-75z" fill="#d5e8fe"/></g></svg>