<svg id="Capa_1" enable-background="new 0 0 512 512" height="512" viewBox="0 0 512 512" width="512" xmlns="http://www.w3.org/2000/svg"><g><path d="m91 241h-30v-165h135v30h-105z" fill="#c3ea21"/><path d="m452 436h-136v-30h106v-135h30z" fill="#9cdd05"/><path d="m301 346v30l-30 15h-210l-31-15v-30l31-15h210z" fill="#453d83"/><path d="m301 346v30l-30 15h-105v-60h105z" fill="#2d2755"/><path d="m0 226h331v120h-331z" fill="#5f55af"/><path d="m0 376h331v120h-331z" fill="#5f55af"/><path d="m166 226h165v120h-165z" fill="#453d83"/><path d="m166 376h165v120h-165z" fill="#453d83"/><path d="m61 421h60v30h-60z" fill="#64e1dc"/><path d="m61 271h60v30h-60z" fill="#64e1dc"/><path d="m482 136v30l-30 15h-211l-30-15v-30l30-15h211z" fill="#453d83"/><path d="m482 136v30l-30 15h-106v-60h106z" fill="#2d2755"/><path d="m181 16h331v120h-331z" fill="#5f55af"/><path d="m181 166h331v120h-331z" fill="#5f55af"/><path d="m346 16h166v120h-166z" fill="#453d83"/><path d="m346 166h166v120h-166z" fill="#453d83"/><g fill="#64e1dc"><path d="m241 211h60v30h-60z"/><path d="m241 61h60v30h-60z"/></g></g></svg>